<?xml version="1.0"?>
<svg xmlns="http://www.w3.org/2000/svg" id="Layer_1" data-name="Layer 1" viewBox="0 0 512 512" width="512" height="512"><title>parcel track location</title><path d="M400.02,273.49a95.93,95.93,0,1,1-.1,0Zm44.08,103.1a48.475,48.475,0,0,0,8.71-27.66,49.042,49.042,0,0,0-15.46-35.57c-20.62-19.64-54.04-19.64-74.66,0-17.71,16.88-20.54,43.3-6.75,63.23l44.08,63.71Z" style="fill:#e48e66"/><path d="M452.81,348.93a48.475,48.475,0,0,1-8.71,27.66L400.02,440.3l-44.08-63.71c-13.79-19.93-10.96-46.35,6.75-63.23,20.62-19.64,54.04-19.64,74.66,0A49.042,49.042,0,0,1,452.81,348.93Zm-26.32-.19a26.47,26.47,0,1,0-26.47,26.47A26.469,26.469,0,0,0,426.49,348.74Z" style="fill:#f8ec7d"/><circle cx="400.02" cy="348.74" r="26.47" style="fill:#e48e66"/><path d="M399.92,145.17V273.49a96.009,96.009,0,0,0-84.18,141.94L207.96,477.66V255.98L399.91,145.16Z" style="fill:#6fe3ff"/><polygon points="207.96 255.98 110.1 199.48 302.04 88.66 399.91 145.16 207.96 255.98" style="fill:#e2d574"/><polygon points="302.04 88.66 110.1 199.48 16.01 145.16 207.96 34.34 302.04 88.66" style="fill:#f8ec7d"/><polygon points="207.96 255.98 207.96 477.66 16 366.83 16 145.17 16.01 145.16 110.1 199.48 207.96 255.98" style="fill:#e48e66"/><path d="M405.92,267.665V145.17a6.029,6.029,0,0,0-1.768-4.252,5.967,5.967,0,0,0-1.242-.954L210.96,29.144a5.994,5.994,0,0,0-6,0L13.01,139.964a6.109,6.109,0,0,0-1.252.964A6,6,0,0,0,10,145.17V366.83a6,6,0,0,0,3,5.2l191.96,110.83a6,6,0,0,0,6,0L313.59,423.6a101.98,101.98,0,1,0,92.33-155.935ZM207.96,249.053,122.1,199.481,302.044,95.586,387.91,145.16Zm6,10.392,179.96-103.9v112.13a102,102,0,0,0-86.1,145.4L213.96,467.267Zm-6-218.176,82.083,47.389L110.1,192.553,28.01,145.16ZM22,155.547l179.96,103.9V467.267L22,363.366ZM400.02,459.44a89.975,89.975,0,0,1-.094-179.95l-.006-6,.1,6a89.975,89.975,0,1,1,0,179.95Z" style="fill:#63316d"/><path d="M358.552,309.016v0A54.668,54.668,0,0,0,351.006,380l44.079,63.71a6,6,0,0,0,9.869,0L449.034,380a54.489,54.489,0,0,0-7.546-70.987C418.622,287.237,381.42,287.235,358.552,309.016Zm80.613,64.16L400.02,429.755l-39.146-56.579A42.727,42.727,0,0,1,366.83,317.7v0c18.3-17.433,48.08-17.434,66.382,0a42.491,42.491,0,0,1,5.954,55.472Z" style="fill:#63316d"/><path d="M400.02,316.27a32.47,32.47,0,1,0,32.47,32.47A32.506,32.506,0,0,0,400.02,316.27Zm0,52.94a20.47,20.47,0,1,1,20.47-20.47A20.493,20.493,0,0,1,400.02,369.21Z" style="fill:#63316d"/></svg>
